<svg width="24" height="17" viewBox="0 0 24 17" fill="none" xmlns="http://www.w3.org/2000/svg">
<rect y="0.5" width="24" height="16" rx="5" fill="white"/>
<path d="M8.00478 9.95H5.72978L5.29578 11H4.13378L6.31778 6.1H7.43778L9.62878 11H8.43878L8.00478 9.95ZM7.64778 9.089L6.87078 7.213L6.09378 9.089H7.64778ZM10.1372 6.1H12.3632C12.8952 6.1 13.3642 6.20267 13.7702 6.408C14.1808 6.60867 14.4982 6.89333 14.7222 7.262C14.9508 7.63067 15.0652 8.06 15.0652 8.55C15.0652 9.04 14.9508 9.46933 14.7222 9.838C14.4982 10.2067 14.1808 10.4937 13.7702 10.699C13.3642 10.8997 12.8952 11 12.3632 11H10.1372V6.1ZM12.3072 10.069C12.7972 10.069 13.1868 9.93367 13.4762 9.663C13.7702 9.38767 13.9172 9.01667 13.9172 8.55C13.9172 8.08333 13.7702 7.71467 13.4762 7.444C13.1868 7.16867 12.7972 7.031 12.3072 7.031H11.2712V10.069H12.3072ZM17.5304 11.084C17.143 11.084 16.7674 11.0327 16.4034 10.93C16.044 10.8227 15.7547 10.685 15.5354 10.517L15.9204 9.663C16.1304 9.817 16.38 9.94067 16.6694 10.034C16.9587 10.1273 17.248 10.174 17.5374 10.174C17.8594 10.174 18.0974 10.1273 18.2514 10.034C18.4054 9.936 18.4824 9.80767 18.4824 9.649C18.4824 9.53233 18.4357 9.43667 18.3424 9.362C18.2537 9.28267 18.137 9.21967 17.9924 9.173C17.8524 9.12633 17.661 9.075 17.4184 9.019C17.045 8.93033 16.7394 8.84167 16.5014 8.753C16.2634 8.66433 16.058 8.522 15.8854 8.326C15.7174 8.13 15.6334 7.86867 15.6334 7.542C15.6334 7.25733 15.7104 7.00067 15.8644 6.772C16.0184 6.53867 16.2494 6.35433 16.5574 6.219C16.87 6.08367 17.2504 6.016 17.6984 6.016C18.011 6.016 18.3167 6.05333 18.6154 6.128C18.914 6.20267 19.1754 6.31 19.3994 6.45L19.0494 7.311C18.5967 7.05433 18.144 6.926 17.6914 6.926C17.374 6.926 17.1384 6.97733 16.9844 7.08C16.835 7.18267 16.7604 7.318 16.7604 7.486C16.7604 7.654 16.8467 7.78 17.0194 7.864C17.1967 7.94333 17.465 8.02267 17.8244 8.102C18.1977 8.19067 18.5034 8.27933 18.7414 8.368C18.9794 8.45667 19.1824 8.59667 19.3504 8.788C19.523 8.97933 19.6094 9.23833 19.6094 9.565C19.6094 9.845 19.53 10.1017 19.3714 10.335C19.2174 10.5637 18.984 10.7457 18.6714 10.881C18.3587 11.0163 17.9784 11.084 17.5304 11.084Z" fill="#3A86FF"/>
</svg>
