<svg height="511pt" viewBox="-64 0 511 511.9999" width="511pt" xmlns="http://www.w3.org/2000/svg"><path d="m336.472656 64.035156h-47.996094v-16c0-8.835937-7.160156-16-15.996093-16h-34.734375c-8.820313-24.996094-36.238282-38.109375-61.234375-29.285156-13.6875 4.832031-24.457031 15.597656-29.289063 29.285156h-34.730468c-8.835938 0-16 7.164063-16 16v16h-47.996094c-26.507813 0-47.996094 21.488282-47.996094 47.996094v351.972656c0 26.507813 21.488281 47.996094 47.996094 47.996094h287.980468c26.507813 0 47.996094-21.488281 47.996094-47.996094v-351.972656c-.003906-26.507812-21.492187-47.996094-48-47.996094zm-207.984375 0h32c8.835938 0 16-7.164062 16-16 0-8.835937 7.160157-16 15.996094-16s16 7.164063 16 16c0 8.835938 7.164063 16 16 16h31.996094v31.996094h-127.992188zm223.984375 399.96875c0 8.835938-7.164062 16-16 16h-287.976562c-8.835938 0-16-7.164062-16-16v-351.972656c0-8.835938 7.164062-16 16-16h47.996094v16c0 8.835938 7.164062 15.996094 16 15.996094h159.988281c8.835937 0 15.996093-7.160156 15.996093-15.996094v-16h48c8.835938 0 15.996094 7.164062 15.996094 16zm0 0"/><path d="m288.476562 192.023438h-191.984374c-8.835938 0-16 7.164062-16 16 0 8.835937 7.164062 16 16 16h191.984374c8.835938 0 16-7.164063 16-16 0-8.835938-7.164062-16-16-16zm0 0"/><path d="m288.476562 288.015625h-191.984374c-8.835938 0-16 7.164063-16 16s7.164062 16 16 16h191.984374c8.835938 0 16-7.164063 16-16s-7.164062-16-16-16zm0 0"/><path d="m288.476562 384.011719h-191.984374c-8.835938 0-16 7.160156-16 15.996093 0 8.835938 7.164062 16 16 16h191.984374c8.835938 0 16-7.164062 16-16 0-8.835937-7.164062-15.996093-16-15.996093zm0 0"/></svg>