<svg width="24" height="24" viewBox="0 0 24 24" fill="none" xmlns="http://www.w3.org/2000/svg">
<path fill-rule="evenodd" clip-rule="evenodd" d="M12 24C18.627 24 24 18.627 24 12C24 5.373 18.627 0 12 0C5.373 0 0 5.373 0 12C0 18.627 5.373 24 12 24Z" fill="#3B5998"/>
<path fill-rule="evenodd" clip-rule="evenodd" d="M10.403 8.27397V9.94797H9.17603V11.996H10.403V18.081H12.923V11.997H14.614C14.614 11.997 14.772 11.014 14.85 9.94097H12.933V8.54097C12.933 8.33197 13.208 8.05097 13.479 8.05097H14.852V5.91797H12.985C10.341 5.91797 10.403 7.96597 10.403 8.27297" fill="white"/>
</svg>
