<svg width="24" height="24" viewBox="0 0 24 24" fill="none" xmlns="http://www.w3.org/2000/svg">
<path fill-rule="evenodd" clip-rule="evenodd" d="M12 24C18.628 24 24 18.627 24 12C24 5.373 18.628 0 12 0C5.372 0 0 5.373 0 12C0 18.627 5.372 24 12 24Z" fill="#D93174"/>
<path fill-rule="evenodd" clip-rule="evenodd" d="M14.716 5.27979H9.28403C8.22243 5.28084 7.20461 5.70303 6.45394 6.4537C5.70328 7.20437 5.28109 8.22218 5.28003 9.28379V14.7158C5.28109 15.7773 5.70331 16.795 6.454 17.5455C7.2047 18.296 8.22252 18.718 9.28403 18.7188H14.716C15.7775 18.718 16.7954 18.296 17.5461 17.5455C18.2967 16.795 18.719 15.7773 18.72 14.7158V9.28379C18.719 8.22218 18.2968 7.20437 17.5461 6.4537C16.7954 5.70303 15.7776 5.28084 14.716 5.27979ZM17.368 14.7158C17.368 15.4191 17.0886 16.0937 16.5913 16.591C16.0939 17.0884 15.4194 17.3678 14.716 17.3678H9.28403C8.58076 17.3675 7.90636 17.088 7.40907 16.5907C6.91179 16.0934 6.63229 15.4191 6.63203 14.7158V9.28379C6.63203 8.58043 6.91144 7.90588 7.40878 7.40854C7.90613 6.91119 8.58068 6.63178 9.28403 6.63178H14.716C15.4194 6.63178 16.0939 6.91119 16.5913 7.40854C17.0886 7.90588 17.368 8.58043 17.368 9.28379V14.7158Z" fill="white"/>
<path fill-rule="evenodd" clip-rule="evenodd" d="M12 8.44186C11.0567 8.44291 10.1523 8.81811 9.4853 9.48514C8.81827 10.1522 8.44308 11.0565 8.44202 11.9999C8.44308 12.9431 8.81831 13.8474 9.48536 14.5142C10.1524 15.1811 11.0568 15.5561 12 15.5569C12.9432 15.5561 13.8476 15.1811 14.5147 14.5142C15.1817 13.8474 15.557 12.9431 15.558 11.9999C15.557 11.0565 15.1818 10.1522 14.5147 9.48514C13.8477 8.81811 12.9433 8.44291 12 8.44186ZM12 14.1729C11.4234 14.1729 10.8705 13.9438 10.4628 13.5361C10.0551 13.1284 9.82602 12.5754 9.82602 11.9989C9.82602 11.4223 10.0551 10.8693 10.4628 10.4616C10.8705 10.0539 11.4234 9.82486 12 9.82486C12.5766 9.82486 13.1296 10.0539 13.5373 10.4616C13.945 10.8693 14.174 11.4223 14.174 11.9989C14.174 12.5754 13.945 13.1284 13.5373 13.5361C13.1296 13.9438 12.5766 14.1729 12 14.1729ZM15.558 9.23286C15.7677 9.23286 15.9687 9.14957 16.117 9.00132C16.2652 8.85308 16.3485 8.65201 16.3485 8.44236C16.3485 8.2327 16.2652 8.03164 16.117 7.88339C15.9687 7.73514 15.7677 7.65186 15.558 7.65186C15.3484 7.65186 15.1473 7.73514 14.999 7.88339C14.8508 8.03164 14.7675 8.2327 14.7675 8.44236C14.7675 8.65201 14.8508 8.85308 14.999 9.00132C15.1473 9.14957 15.3484 9.23286 15.558 9.23286Z" fill="white"/>
</svg>
