<svg width="16" height="16" viewBox="0 0 16 16" fill="none" xmlns="http://www.w3.org/2000/svg">
<g clip-path="url(#clip0)">
<path d="M10.7582 7.97301H6.69622C6.48454 7.97301 6.29904 7.83142 6.24322 7.62723C6.18741 7.42304 6.2751 7.20676 6.45732 7.09904C8.2271 6.05329 9.14638 4.83342 9.26763 3.36973C9.30991 2.86176 9.76235 2.45601 10.2759 2.46273C10.8 2.4711 11.291 2.68117 11.6587 3.05429C12.0267 3.42776 12.2295 3.92232 12.2297 4.44682C12.2297 4.44688 12.2297 4.44695 12.2297 4.44701V4.60479C12.2297 5.88604 11.8502 6.70298 11.15 7.76229C11.0629 7.89388 10.9158 7.97301 10.7582 7.97301Z" fill="#FFC380"/>
<path d="M15.7364 8.50544C15.7364 7.69406 15.0763 7.03394 14.2649 7.03394H6.69643C6.61234 7.03394 6.52978 7.0565 6.45743 7.09931C5.92615 7.41344 5.38971 7.67203 4.95868 7.87987C4.80834 7.95234 4.66634 8.02081 4.53718 8.08537C4.37809 8.16494 4.27759 8.32753 4.27759 8.50544V14.5167C4.27759 14.6946 4.37809 14.8572 4.53718 14.9367C6.43478 15.8854 8.01215 16.0001 9.85156 16.0001C10.1364 16.0001 10.4277 15.9973 10.7273 15.9945C11.0586 15.9914 11.4011 15.9882 11.7602 15.9882H13.2449C14.0563 15.9882 14.7164 15.3281 14.7164 14.5167C14.7164 14.2438 14.6418 13.9882 14.5119 13.7689C14.9347 13.5101 15.2173 13.0439 15.2173 12.5129C15.2173 12.2401 15.1427 11.9844 15.0128 11.7651C15.4356 11.5063 15.7183 11.0402 15.7183 10.5092C15.7183 10.1275 15.5722 9.77937 15.3332 9.51765C15.5935 9.24325 15.7364 8.88534 15.7364 8.50544Z" fill="#FFCF99"/>
<path d="M14.7596 4.40996H13.7577C13.4984 4.40996 13.2881 4.19968 13.2881 3.94033C13.2881 3.68099 13.4984 3.4707 13.7577 3.4707H14.7596C15.0189 3.4707 15.2292 3.68099 15.2292 3.94033C15.2292 4.19968 15.019 4.40996 14.7596 4.40996Z" fill="#29CCB1"/>
<path d="M7.74641 4.40996H6.74453C6.48518 4.40996 6.2749 4.19968 6.2749 3.94033C6.2749 3.68099 6.48518 3.4707 6.74453 3.4707H7.74641C8.00576 3.4707 8.21604 3.68099 8.21604 3.94033C8.21604 4.19968 8.00582 4.40996 7.74641 4.40996Z" fill="#29CCB1"/>
<path d="M9.24962 1.80703C9.08728 1.80703 8.92947 1.72281 8.8425 1.57215L8.34156 0.704498C8.21187 0.479904 8.28884 0.192654 8.51344 0.0629977C8.73803 -0.0666898 9.02528 0.010279 9.15494 0.234873L9.65587 1.10253C9.78556 1.32712 9.70859 1.61437 9.484 1.74403C9.41006 1.78675 9.32928 1.80703 9.24962 1.80703Z" fill="#29CCB1"/>
<path d="M12.2544 1.80706C12.1747 1.80706 12.094 1.78678 12.02 1.74406C11.7954 1.61437 11.7185 1.32715 11.8482 1.10256L12.3491 0.234901C12.4787 0.0103068 12.766 -0.0667245 12.9906 0.0630255C13.2152 0.192713 13.2922 0.479932 13.1625 0.704526L12.6615 1.57218C12.5746 1.72284 12.4167 1.80706 12.2544 1.80706Z" fill="#29CCB1"/>
<path d="M3.20683 13.5207V15.994H2.26758V13.5207C2.26758 13.2614 2.47798 13.051 2.7372 13.051C2.99642 13.051 3.20683 13.2614 3.20683 13.5207Z" fill="#73C3FF"/>
<path d="M14.7596 4.40996H13.7577C13.4984 4.40996 13.2881 4.19968 13.2881 3.94033C13.2881 3.68099 13.4984 3.4707 13.7577 3.4707H14.7596C15.0189 3.4707 15.2292 3.68099 15.2292 3.94033C15.2292 4.19968 15.019 4.40996 14.7596 4.40996Z" fill="#29CCB1"/>
<path d="M7.74641 4.40996H6.74453C6.48518 4.40996 6.2749 4.19968 6.2749 3.94033C6.2749 3.68099 6.48518 3.4707 6.74453 3.4707H7.74641C8.00576 3.4707 8.21604 3.68099 8.21604 3.94033C8.21604 4.19968 8.00582 4.40996 7.74641 4.40996Z" fill="#29CCB1"/>
<path d="M9.24962 1.80703C9.08728 1.80703 8.92947 1.72281 8.8425 1.57215L8.34156 0.704498C8.21187 0.479904 8.28884 0.192654 8.51344 0.0629977C8.73803 -0.0666898 9.02528 0.010279 9.15494 0.234873L9.65587 1.10253C9.78556 1.32712 9.70859 1.61437 9.484 1.74403C9.41006 1.78675 9.32928 1.80703 9.24962 1.80703Z" fill="#29CCB1"/>
<path d="M12.2544 1.80706C12.1747 1.80706 12.094 1.78678 12.02 1.74406C11.7954 1.61437 11.7185 1.32715 11.8482 1.10256L12.3491 0.234901C12.4787 0.0103068 12.766 -0.0667245 12.9906 0.0630255C13.2152 0.192713 13.2922 0.479932 13.1625 0.704526L12.6615 1.57218C12.5746 1.72284 12.4167 1.80706 12.2544 1.80706Z" fill="#29CCB1"/>
<path d="M3.20683 13.5207V15.994H2.26758V13.5207C2.26758 13.2614 2.47798 13.051 2.7372 13.051C2.99642 13.051 3.20683 13.2614 3.20683 13.5207Z" fill="#73C3FF"/>
<path d="M4.74077 7.03394H0.733297C0.474078 7.03394 0.263672 7.24434 0.263672 7.50356V15.5185C0.263672 15.778 0.474078 15.9881 0.733297 15.9941H3.73889C4.31464 15.9881 4.81402 15.6559 5.05542 15.1732C5.15467 14.9756 5.21039 14.7524 5.21039 14.5166V7.50356C5.21039 7.24431 4.99998 7.03394 4.74077 7.03394Z" fill="#EB1C24"/>
<path opacity="0.8" d="M3.20683 13.4894V15.9941H2.26758V13.4894C2.26758 13.2302 2.47798 13.0198 2.7372 13.0198C2.99642 13.0198 3.20683 13.2302 3.20683 13.4894Z" fill="white"/>
</g>
<defs>
<clipPath id="clip0">
<rect width="16" height="16" fill="white"/>
</clipPath>
</defs>
</svg>
