<svg width="214" height="40" viewBox="0 0 214 40" fill="none" xmlns="http://www.w3.org/2000/svg">
<rect width="40" height="40" rx="3.96835" fill="white"/>
<path d="M28.5713 23.8242C26.4885 26.7253 23.3642 28.5715 19.868 28.5715C18.529 28.5715 17.1901 28.3078 15.9999 27.7803L16.8925 24.7913C17.7852 25.2308 18.8266 25.4067 19.868 25.4067C22.5459 25.4067 24.9263 24.0001 26.4885 21.7144L28.5713 23.8242Z" fill="#EB1C24"/>
<path d="M14.2859 11.4287C11.4287 11.4287 9.14304 13.7144 9.14304 16.5716C9.14304 19.4287 11.4287 21.7144 14.2859 21.7144C17.143 21.7144 19.4287 19.4287 19.4287 16.5716C19.4287 13.7144 17.143 11.4287 14.2859 11.4287ZM14.2859 19.143C12.8573 19.143 11.7145 18.0001 11.7145 16.5716C11.7145 15.143 12.8573 14.0001 14.2859 14.0001C15.7145 14.0001 16.8573 15.143 16.8573 16.5716C16.8573 18.0001 15.7145 19.143 14.2859 19.143Z" fill="#EB1C24"/>
<path d="M25.7142 11.4287C22.8571 11.4287 20.5714 13.7144 20.5714 16.5716C20.5714 19.4287 22.8571 21.7144 25.7142 21.7144C28.5714 21.7144 30.8571 19.4287 30.8571 16.5716C30.8571 13.7144 28.4999 11.4287 25.7142 11.4287ZM25.7142 19.143C24.2856 19.143 23.1428 18.0001 23.1428 16.5716C23.1428 15.143 24.2856 14.0001 25.7142 14.0001C27.1428 14.0001 28.2856 15.143 28.2856 16.5716C28.2856 18.0001 27.0714 19.143 25.7142 19.143Z" fill="#EB1C24"/>
<path d="M205.034 26.1353C205.034 27.9832 203.556 29.4616 201.708 29.4616C199.86 29.4616 198.382 27.9832 198.382 26.1353L195.332 27.8908C196.072 30.6628 198.659 32.6956 201.708 32.6956C204.757 32.6956 207.344 30.6628 208.084 27.8908L205.034 26.1353Z" fill="white"/>
<path d="M112.45 28.5374C109.863 31.5866 105.983 33.527 101.64 33.527C99.9765 33.527 98.3134 33.2498 96.835 32.6954L97.9438 29.5538C99.0526 30.0158 100.346 30.2006 101.64 30.2006C104.966 30.2006 107.923 28.7222 109.863 26.3198L112.45 28.5374Z" fill="white"/>
<path d="M201.709 26.1351C205.405 26.1351 208.361 23.1783 208.361 19.4824C208.361 15.7864 205.405 12.8296 201.709 12.8296C198.013 12.8296 195.056 15.7864 195.056 19.4824C195.056 23.1783 198.105 26.1351 201.709 26.1351ZM201.709 16.156C203.557 16.156 205.035 17.6344 205.035 19.4824C205.035 21.3303 203.557 22.8087 201.709 22.8087C199.861 22.8087 198.382 21.3303 198.382 19.4824C198.382 17.6344 199.861 16.156 201.709 16.156Z" fill="white"/>
<path d="M54.5158 7.93262L51.1894 9.87301V19.575C51.1894 23.2709 54.1462 26.2277 57.8422 26.2277V22.8089C55.9942 22.8089 54.5158 21.3305 54.5158 19.4825V14.493H57.8422V11.1666H54.5158V7.93262Z" fill="white"/>
<path d="M82.8822 12.8298L77.6155 18.0966V7.93262L74.3815 9.7806V26.1353H77.6155V20.8685L82.8822 26.1353H87.5946L80.9418 19.4825L87.5946 12.8298H82.8822Z" fill="white"/>
<path d="M123.999 12.8296C120.303 12.8296 117.347 15.7864 117.347 19.4824C117.347 23.1783 120.303 26.1351 123.999 26.1351C125.201 26.1351 126.309 25.7655 127.326 25.2111V26.1351H130.652V19.4824C130.56 15.7864 127.603 12.8296 123.999 12.8296ZM123.999 22.8087C122.151 22.8087 120.673 21.3303 120.673 19.4824C120.673 17.6344 122.151 16.156 123.999 16.156C125.847 16.156 127.326 17.6344 127.326 19.4824C127.326 21.3303 125.755 22.8087 123.999 22.8087Z" fill="white"/>
<path d="M171.956 12.8296C168.26 12.8296 165.303 15.7864 165.303 19.4824C165.303 23.1783 168.26 26.1351 171.956 26.1351C173.157 26.1351 174.266 25.7655 175.282 25.2111V26.1351H178.608V19.4824C178.516 15.7864 175.559 12.8296 171.956 12.8296ZM171.956 22.8087C170.108 22.8087 168.629 21.3303 168.629 19.4824C168.629 17.6344 170.108 16.156 171.956 16.156C173.804 16.156 175.282 17.6344 175.282 19.4824C175.282 21.3303 173.804 22.8087 171.956 22.8087Z" fill="white"/>
<path d="M186.831 12.8296C183.135 12.8296 180.179 15.7864 180.179 19.4824V26.1351H183.505V25.2111V19.4824C183.505 17.6344 184.983 16.156 186.831 16.156C188.679 16.156 190.158 17.6344 190.158 19.4824V25.2111V26.1351H193.484V19.4824C193.484 15.7864 190.527 12.8296 186.831 12.8296Z" fill="white"/>
<path d="M157.079 12.8296C153.383 12.8296 150.427 15.7864 150.427 19.4824V31.0323L153.753 29.0919V25.1187C154.769 25.6731 155.878 26.0427 157.079 26.0427C160.775 26.0427 163.732 23.0859 163.732 19.39C163.732 15.694 160.683 12.8296 157.079 12.8296ZM157.079 22.8087C155.231 22.8087 153.753 21.3303 153.753 19.4824C153.753 17.6344 155.231 16.156 157.079 16.156C158.927 16.156 160.406 17.6344 160.406 19.4824C160.406 21.3303 158.835 22.8087 157.079 22.8087Z" fill="white"/>
<path d="M143.774 12.8296C142.48 12.8296 141.371 13.2916 140.447 14.1232C139.523 13.2916 138.414 12.8296 137.121 12.8296C134.349 12.8296 132.131 15.0472 132.131 17.8192V26.1351H135.458V17.8192C135.458 16.8952 136.197 16.156 137.121 16.156C138.045 16.156 138.784 16.8952 138.784 17.8192V26.1351H142.11V17.8192C142.11 16.8952 142.85 16.156 143.774 16.156C144.698 16.156 145.437 16.8952 145.437 17.8192V26.1351H148.763V17.8192C148.763 15.0472 146.546 12.8296 143.774 12.8296Z" fill="white"/>
<path d="M66.3574 13.1836C62.6614 13.1836 59.7047 16.1404 59.7047 19.8364C59.7047 23.5323 62.6614 26.4891 66.3574 26.4891C70.0534 26.4891 73.0102 23.5323 73.0102 19.8364C73.0102 16.1404 70.0534 13.1836 66.3574 13.1836ZM66.3574 23.1627C64.5094 23.1627 63.031 21.6843 63.031 19.8364C63.031 17.9884 64.5094 16.51 66.3574 16.51C68.2054 16.51 69.6838 17.9884 69.6838 19.8364C69.6838 21.6843 68.2054 23.1627 66.3574 23.1627Z" fill="white"/>
<path d="M94.1549 12.8296C90.4589 12.8296 87.5022 15.7864 87.5022 19.4824C87.5022 23.1783 90.4589 26.1351 94.1549 26.1351C97.8509 26.1351 100.808 23.1783 100.808 19.4824C100.808 15.7864 97.8509 12.8296 94.1549 12.8296ZM94.1549 22.8087C92.3069 22.8087 90.8285 21.3303 90.8285 19.4824C90.8285 17.6344 92.3069 16.156 94.1549 16.156C96.0029 16.156 97.4813 17.6344 97.4813 19.4824C97.4813 21.3303 96.0029 22.8087 94.1549 22.8087Z" fill="white"/>
<path d="M109.124 12.8296C105.428 12.8296 102.471 15.7864 102.471 19.4824C102.471 23.1783 105.428 26.1351 109.124 26.1351C112.82 26.1351 115.777 23.1783 115.777 19.4824C115.777 15.7864 112.727 12.8296 109.124 12.8296ZM109.124 22.8087C107.276 22.8087 105.797 21.3303 105.797 19.4824C105.797 17.6344 107.276 16.156 109.124 16.156C110.972 16.156 112.45 17.6344 112.45 19.4824C112.45 21.3303 110.879 22.8087 109.124 22.8087Z" fill="white"/>
</svg>
