<svg width="214" height="40" viewBox="0 0 214 40" fill="none" xmlns="http://www.w3.org/2000/svg">
<rect width="40" height="40" rx="3.96835" fill="#EB1C24"/>
<path d="M28.5713 23.8242C26.4885 26.7253 23.3642 28.5715 19.868 28.5715C18.529 28.5715 17.1901 28.3078 15.9999 27.7803L16.8925 24.7913C17.7852 25.2308 18.8266 25.4067 19.868 25.4067C22.5459 25.4067 24.9263 24.0001 26.4885 21.7144L28.5713 23.8242Z" fill="white"/>
<path d="M14.2859 11.4287C11.4287 11.4287 9.14301 13.7144 9.14301 16.5716C9.14301 19.4287 11.4287 21.7144 14.2859 21.7144C17.143 21.7144 19.4287 19.4287 19.4287 16.5716C19.4287 13.7144 17.143 11.4287 14.2859 11.4287ZM14.2859 19.143C12.8573 19.143 11.7144 18.0001 11.7144 16.5716C11.7144 15.143 12.8573 14.0001 14.2859 14.0001C15.7144 14.0001 16.8573 15.143 16.8573 16.5716C16.8573 18.0001 15.7144 19.143 14.2859 19.143Z" fill="white"/>
<path d="M25.7142 11.4287C22.8571 11.4287 20.5714 13.7144 20.5714 16.5716C20.5714 19.4287 22.8571 21.7144 25.7142 21.7144C28.5714 21.7144 30.8571 19.4287 30.8571 16.5716C30.8571 13.7144 28.4999 11.4287 25.7142 11.4287ZM25.7142 19.143C24.2856 19.143 23.1428 18.0001 23.1428 16.5716C23.1428 15.143 24.2856 14.0001 25.7142 14.0001C27.1428 14.0001 28.2856 15.143 28.2856 16.5716C28.2856 18.0001 27.0714 19.143 25.7142 19.143Z" fill="white"/>
<path d="M205.034 26.135C205.034 27.983 203.556 29.4614 201.708 29.4614C199.86 29.4614 198.382 27.983 198.382 26.135L195.332 27.8906C196.072 30.6626 198.659 32.6954 201.708 32.6954C204.757 32.6954 207.344 30.6626 208.084 27.8906L205.034 26.135Z" fill="#323133"/>
<path d="M112.45 28.5372C109.863 31.5863 105.982 33.5267 101.64 33.5267C99.9765 33.5267 98.3133 33.2495 96.8349 32.6951L97.9437 29.5536C99.0525 30.0156 100.346 30.2004 101.64 30.2004C104.966 30.2004 107.923 28.722 109.863 26.3196L112.45 28.5372Z" fill="#EB1C24"/>
<path d="M201.709 26.1346C205.405 26.1346 208.361 23.1778 208.361 19.4819C208.361 15.7859 205.405 12.8291 201.709 12.8291C198.013 12.8291 195.056 15.7859 195.056 19.4819C195.056 23.1778 198.105 26.1346 201.709 26.1346ZM201.709 16.1555C203.557 16.1555 205.035 17.6339 205.035 19.4819C205.035 21.3299 203.557 22.8082 201.709 22.8082C199.861 22.8082 198.382 21.3299 198.382 19.4819C198.382 17.6339 199.861 16.1555 201.709 16.1555Z" fill="#323133"/>
<path d="M54.5158 7.93213L51.1894 9.87252V19.5745C51.1894 23.2704 54.1462 26.2272 57.8422 26.2272V22.8084C55.9942 22.8084 54.5158 21.33 54.5158 19.4821V14.4925H57.8422V11.1661H54.5158V7.93213Z" fill="#323133"/>
<path d="M82.8822 12.8293L77.6155 18.0961V7.93213L74.3815 9.78011V26.1348H77.6155V20.8681L82.8822 26.1348H87.5946L80.9418 19.4821L87.5946 12.8293H82.8822Z" fill="#323133"/>
<path d="M123.999 12.8291C120.303 12.8291 117.347 15.7859 117.347 19.4819C117.347 23.1778 120.303 26.1346 123.999 26.1346C125.201 26.1346 126.309 25.765 127.326 25.2106V26.1346H130.652V19.4819C130.56 15.7859 127.603 12.8291 123.999 12.8291ZM123.999 22.8082C122.151 22.8082 120.673 21.3299 120.673 19.4819C120.673 17.6339 122.151 16.1555 123.999 16.1555C125.847 16.1555 127.326 17.6339 127.326 19.4819C127.326 21.3299 125.755 22.8082 123.999 22.8082Z" fill="#323133"/>
<path d="M171.955 12.8291C168.26 12.8291 165.303 15.7859 165.303 19.4819C165.303 23.1778 168.26 26.1346 171.955 26.1346C173.157 26.1346 174.265 25.765 175.282 25.2106V26.1346H178.608V19.4819C178.516 15.7859 175.559 12.8291 171.955 12.8291ZM171.955 22.8082C170.108 22.8082 168.629 21.3299 168.629 19.4819C168.629 17.6339 170.108 16.1555 171.955 16.1555C173.803 16.1555 175.282 17.6339 175.282 19.4819C175.282 21.3299 173.803 22.8082 171.955 22.8082Z" fill="#323133"/>
<path d="M186.831 12.8291C183.135 12.8291 180.178 15.7859 180.178 19.4819V26.1346H183.505V25.2106V19.4819C183.505 17.6339 184.983 16.1555 186.831 16.1555C188.679 16.1555 190.158 17.6339 190.158 19.4819V25.2106V26.1346H193.484V19.4819C193.484 15.7859 190.527 12.8291 186.831 12.8291Z" fill="#323133"/>
<path d="M157.079 12.8291C153.383 12.8291 150.427 15.7859 150.427 19.4819V31.0318L153.753 29.0914V25.1182C154.769 25.6726 155.878 26.0422 157.079 26.0422C160.775 26.0422 163.732 23.0855 163.732 19.3895C163.732 15.6935 160.683 12.8291 157.079 12.8291ZM157.079 22.8082C155.231 22.8082 153.753 21.3299 153.753 19.4819C153.753 17.6339 155.231 16.1555 157.079 16.1555C158.927 16.1555 160.406 17.6339 160.406 19.4819C160.406 21.3299 158.835 22.8082 157.079 22.8082Z" fill="#323133"/>
<path d="M143.774 12.8291C142.48 12.8291 141.371 13.2911 140.447 14.1227C139.523 13.2911 138.414 12.8291 137.121 12.8291C134.349 12.8291 132.131 15.0467 132.131 17.8187V26.1346H135.458V17.8187C135.458 16.8947 136.197 16.1555 137.121 16.1555C138.045 16.1555 138.784 16.8947 138.784 17.8187V26.1346H142.11V17.8187C142.11 16.8947 142.85 16.1555 143.774 16.1555C144.698 16.1555 145.437 16.8947 145.437 17.8187V26.1346H148.763V17.8187C148.763 15.0467 146.546 12.8291 143.774 12.8291Z" fill="#323133"/>
<path d="M66.3574 13.1833C62.6614 13.1833 59.7047 16.1401 59.7047 19.8361C59.7047 23.5321 62.6614 26.4889 66.3574 26.4889C70.0534 26.4889 73.0102 23.5321 73.0102 19.8361C73.0102 16.1401 70.0534 13.1833 66.3574 13.1833ZM66.3574 23.1625C64.5094 23.1625 63.031 21.6841 63.031 19.8361C63.031 17.9881 64.5094 16.5097 66.3574 16.5097C68.2054 16.5097 69.6838 17.9881 69.6838 19.8361C69.6838 21.6841 68.2054 23.1625 66.3574 23.1625Z" fill="#323133"/>
<path d="M94.1549 12.8291C90.4589 12.8291 87.5021 15.7859 87.5021 19.4819C87.5021 23.1778 90.4589 26.1346 94.1549 26.1346C97.8509 26.1346 100.808 23.1778 100.808 19.4819C100.808 15.7859 97.8509 12.8291 94.1549 12.8291ZM94.1549 22.8082C92.3069 22.8082 90.8285 21.3299 90.8285 19.4819C90.8285 17.6339 92.3069 16.1555 94.1549 16.1555C96.0029 16.1555 97.4813 17.6339 97.4813 19.4819C97.4813 21.3299 96.0029 22.8082 94.1549 22.8082Z" fill="#323133"/>
<path d="M109.124 12.8291C105.428 12.8291 102.471 15.7859 102.471 19.4819C102.471 23.1778 105.428 26.1346 109.124 26.1346C112.82 26.1346 115.776 23.1778 115.776 19.4819C115.776 15.7859 112.727 12.8291 109.124 12.8291ZM109.124 22.8082C107.276 22.8082 105.797 21.3299 105.797 19.4819C105.797 17.6339 107.276 16.1555 109.124 16.1555C110.972 16.1555 112.45 17.6339 112.45 19.4819C112.45 21.3299 110.879 22.8082 109.124 22.8082Z" fill="#EB1C24"/>
</svg>
