<svg width="24" height="24" viewBox="0 0 24 24" fill="none" xmlns="http://www.w3.org/2000/svg">
<path d="M16.9219 10.7742H13.144C12.8851 10.7742 12.6753 10.984 12.6753 11.2429C12.6753 11.5018 12.8851 11.7117 13.144 11.7117H16.9219C17.1808 11.7117 17.3906 11.5018 17.3906 11.2429C17.3906 10.984 17.1808 10.7742 16.9219 10.7742Z" fill="#323133"/>
<path d="M16.9219 12.6492H12.2753C12.0164 12.6492 11.8065 12.859 11.8065 13.1179C11.8065 13.3768 12.0164 13.5867 12.2753 13.5867H16.9219C17.1808 13.5867 17.3907 13.3768 17.3907 13.1179C17.3907 12.859 17.1808 12.6492 16.9219 12.6492Z" fill="#323133"/>
<path d="M10.4003 12.6492C10.277 12.6492 10.156 12.6993 10.0688 12.7861C9.98169 12.8738 9.93152 12.9943 9.93152 13.1179C9.93152 13.2413 9.98169 13.3622 10.0688 13.4493C10.156 13.5367 10.277 13.5867 10.4003 13.5867C10.5235 13.5867 10.6445 13.5367 10.7317 13.4493C10.8188 13.3622 10.869 13.2413 10.869 13.1179C10.869 12.9947 10.8188 12.8738 10.7317 12.7861C10.6445 12.6993 10.5235 12.6492 10.4003 12.6492Z" fill="#323133"/>
<path d="M23.3513 13.5685C22.6251 12.9197 21.5221 12.9109 20.7856 13.5482L19.4063 14.7416V5.68909C19.4063 4.82666 18.7046 4.125 17.8422 4.125H6.15784C5.29541 4.125 4.59375 4.82666 4.59375 5.68909V16.196C4.53918 16.2365 4.48535 16.2775 4.43225 16.32L0.176686 19.7115C-0.0258294 19.8728 -0.0591547 20.1678 0.102162 20.3703C0.194813 20.4864 0.331227 20.5468 0.469106 20.5468C0.571462 20.5468 0.67455 20.5135 0.760976 20.4446L5.01654 17.0532C5.91907 16.3337 7.05176 15.9377 8.20569 15.9377H13.1398C13.7086 15.9377 14.1711 16.4002 14.1711 16.9689C14.1711 17.5375 13.7086 18.0002 13.1398 18.0002H9.97651C9.71778 18.0002 9.50776 18.21 9.50776 18.4689C9.50776 18.7277 9.71778 18.9377 9.97651 18.9377H13.1398C13.1719 18.9377 13.2037 18.9368 13.2354 18.9353C13.2512 18.9368 13.2671 18.9377 13.2834 18.9377H14.0986C15.3179 18.9377 16.4971 18.4982 17.4192 17.7004L21.399 14.2571C21.7802 13.9274 22.351 13.9319 22.7269 14.2678C22.943 14.4608 23.0622 14.7268 23.0625 15.0167C23.0629 15.3065 22.9441 15.5728 22.7282 15.7663L18.9419 19.1613C17.4846 20.4679 15.6043 21.1875 13.6469 21.1875H7.23651C7.11163 21.1875 6.99207 21.2373 6.90399 21.3257L5.04071 23.2007C4.85815 23.3844 4.85907 23.6812 5.04272 23.8638C5.13428 23.9546 5.25366 24 5.37323 24C5.49371 24 5.6142 23.9539 5.70575 23.8616L7.43152 22.125H13.647C15.8355 22.125 17.9383 21.3203 19.5678 19.8593L23.354 16.4645C23.7651 16.0959 24.0006 15.5678 24 15.0159C23.9995 14.4639 23.7631 13.9363 23.3513 13.5685V13.5685ZM13.7221 5.0625V7.25903L13.4268 6.96368C13.2438 6.78076 12.947 6.78076 12.7639 6.96368L12 7.7276L11.2361 6.96368C11.1445 6.87231 11.0246 6.82635 10.9047 6.82635C10.7847 6.82635 10.6646 6.87231 10.5733 6.96368L10.2779 7.25903V5.0625H13.7221ZM16.8056 16.9916C16.2477 17.4743 15.5741 17.7957 14.8576 17.9295C15.0172 17.6451 15.1086 17.3176 15.1086 16.9689C15.1086 15.8833 14.2255 15.0002 13.1398 15.0002H8.20569C7.27661 15.0002 6.35925 15.2175 5.53125 15.6242V5.68909C5.53125 5.34357 5.81232 5.0625 6.15784 5.0625H9.3404V8.39062C9.3404 8.58032 9.45466 8.75116 9.62989 8.82367C9.80476 8.89618 10.0065 8.85626 10.1406 8.72205L10.9047 7.95813L11.6686 8.72205C11.8517 8.90515 12.1483 8.90515 12.3314 8.72205L13.0953 7.95813L13.8594 8.72205C13.949 8.81177 14.0689 8.85938 14.1909 8.85938C14.2513 8.85938 14.3123 8.84766 14.3701 8.82367C14.5454 8.75116 14.6596 8.58032 14.6596 8.39062V5.0625H17.8422C18.1877 5.0625 18.4688 5.34357 18.4688 5.68909V15.5528L16.8056 16.9916Z" fill="#323133"/>
<path d="M12 3.04688C12.2589 3.04688 12.4688 2.83704 12.4688 2.57812V0.46875C12.4688 0.209839 12.2589 0 12 0C11.7411 0 11.5312 0.209839 11.5312 0.46875V2.57812C11.5312 2.83704 11.7411 3.04688 12 3.04688Z" fill="#323133"/>
<path d="M20.4844 11.5312C20.4844 11.7902 20.6942 12 20.9531 12H23.0625C23.3214 12 23.5312 11.7902 23.5312 11.5312C23.5312 11.2723 23.3214 11.0625 23.0625 11.0625H20.9531C20.6942 11.0625 20.4844 11.2723 20.4844 11.5312Z" fill="#323133"/>
<path d="M0.9375 12H3.04688C3.30579 12 3.51562 11.7902 3.51562 11.5312C3.51562 11.2723 3.30579 11.0625 3.04688 11.0625H0.9375C0.678772 11.0625 0.46875 11.2723 0.46875 11.5312C0.46875 11.7902 0.678589 12 0.9375 12Z" fill="#323133"/>
<path d="M3.85063 4.04491C3.94218 4.13628 4.06212 4.18224 4.18224 4.18224C4.30217 4.18224 4.4221 4.13628 4.51366 4.04491C4.69658 3.8618 4.69658 3.56499 4.51366 3.38188L2.6718 1.54002C2.48869 1.3571 2.19206 1.3571 2.00877 1.54002C1.82585 1.72313 1.82585 2.01994 2.00877 2.20305L3.85063 4.04491Z" fill="#323133"/>
<path d="M19.8176 4.18224C19.9377 4.18224 20.0577 4.13628 20.1492 4.04491L21.9911 2.20305C22.174 2.01994 22.174 1.72313 21.9911 1.54002C21.808 1.3571 21.5112 1.3571 21.328 1.54002L19.4862 3.38188C19.3033 3.56499 19.3033 3.8618 19.4862 4.04491C19.5777 4.13628 19.6977 4.18224 19.8176 4.18224Z" fill="#323133"/>
<path d="M8.4328 18.8002C8.52051 18.713 8.57031 18.5925 8.57031 18.4688C8.57031 18.3455 8.52051 18.225 8.4328 18.1373C8.34564 18.0502 8.22479 18 8.10156 18C7.97815 18 7.8573 18.0502 7.77014 18.1373C7.68298 18.2247 7.63281 18.3455 7.63281 18.4688C7.63281 18.5925 7.6828 18.7134 7.77014 18.8002C7.8573 18.8877 7.97815 18.9375 8.10156 18.9375C8.22479 18.9375 8.34564 18.8877 8.4328 18.8002Z" fill="#323133"/>
</svg>
