<svg width="20" height="20" viewBox="0 0 20 20" fill="none" xmlns="http://www.w3.org/2000/svg">
<path d="M3.65845 9.25204C3.56903 9.16262 3.43475 9.13546 3.31787 9.18429C3.20099 9.23251 3.125 9.34664 3.125 9.47298V16.5625C3.125 16.7353 3.26477 16.875 3.4375 16.875H10.527C10.6534 16.875 10.7675 16.799 10.8157 16.6822C10.8642 16.5653 10.8374 16.431 10.748 16.3416L3.65845 9.25204ZM3.75 10.2274L5.62499 12.1024V16.25H3.75V10.2274ZM6.24999 16.25V12.7274L9.77263 16.25H6.24999Z" fill="#323133"/>
<mask id="path-2-outside-1" maskUnits="userSpaceOnUse" x="-0.375" y="-0.375" width="20" height="20" fill="black">
<rect fill="white" x="-0.375" y="-0.375" width="20" height="20"/>
<path d="M17.0959 0.716553C17.0374 0.657959 16.958 0.625 16.875 0.625H5.9375C5.76477 0.625 5.625 0.764772 5.625 0.9375V7.68311L1.15845 3.21655C1.06903 3.12714 0.934753 3.10028 0.817872 3.1488C0.700987 3.19702 0.625 3.31116 0.625 3.4375V19.0625C0.625 19.2352 0.764772 19.375 0.9375 19.375H16.5625C16.6888 19.375 16.803 19.299 16.8512 19.1821C16.8997 19.0652 16.8729 18.931 16.7834 18.8416L14.8169 16.875H15.9375H19.0625C19.2352 16.875 19.375 16.7352 19.375 16.5625V5.625V3.125C19.375 3.04199 19.342 2.96265 19.2834 2.90405L17.0959 0.716553ZM1.25 18.75V4.19189L2.68311 5.625L2.27905 6.02905L2.72095 6.47095L3.125 6.06689L3.62061 6.5625L3.21655 6.96655L3.65845 7.40845L4.0625 7.00439L4.55811 7.5L4.15405 7.90405L4.59595 8.34595L5 7.94189L5.49561 8.4375L5.09155 8.84155L5.53345 9.28345L5.9375 8.87939L6.43311 9.375L6.02905 9.77905L6.47095 10.2209L6.875 9.81689L7.37061 10.3125L6.96655 10.7166L7.40845 11.1584L7.8125 10.7544L8.30811 11.25L7.90405 11.6541L8.34595 12.0959L8.75 11.6919L9.24561 12.1875L8.84155 12.5916L9.28345 13.0334L9.6875 12.6294L10.1831 13.125L9.77905 13.5291L10.2209 13.9709L10.625 13.5669L11.1206 14.0625L10.7166 14.4666L11.1584 14.9084L11.5625 14.5044L12.0581 15L11.6541 15.4041L12.0959 15.8459L12.5 15.4419L12.9956 15.9375L12.5916 16.3416L13.0334 16.7834L13.4375 16.3794L13.9331 16.875L13.5291 17.2791L13.9709 17.7209L14.375 17.3169L15.8081 18.75H1.25ZM7.8125 4.6875H9.0625V11.1206L7.8125 9.87061V4.6875ZM8.00568 4.0625L8.4375 3.19885L8.86932 4.0625H8.00568ZM11.8802 10.3479L12.4127 8.75H13.2123L13.7448 10.3479L13.2484 15.3065L12.2781 14.3362L11.8802 10.3479ZM13.125 6.875V5.46465L14.0085 6.87836L13.2606 8.125H12.3644L11.6165 6.87836L12.5 5.46465V6.875H13.125ZM13.8194 15.8775L14.3735 10.3436C14.3777 10.2997 14.3729 10.2554 14.3588 10.2136L13.7793 8.47517L14.6429 7.03583C14.7034 6.93512 14.7021 6.80908 14.6399 6.70929L13.0774 4.20929C12.9633 4.02679 12.6617 4.02679 12.5476 4.20929L10.9851 6.70929C10.9228 6.80908 10.9216 6.93512 10.982 7.03583L11.8457 8.47517L11.2662 10.2136C11.2521 10.2554 11.2472 10.2997 11.2515 10.3436L11.5803 13.6384L9.6875 11.7456V4.375C9.6875 4.32648 9.67621 4.27857 9.65454 4.23523L8.71704 2.36023C8.61084 2.14844 8.26416 2.14844 8.15796 2.36023L7.22046 4.23523C7.19879 4.27857 7.1875 4.32648 7.1875 4.375V9.24561L6.25 8.30811V1.25H16.7456L18.3081 2.8125H17.1875V2.1875H16.5625V3.125C16.5625 3.29773 16.7023 3.4375 16.875 3.4375H18.75V5.3125H15.9375C15.7648 5.3125 15.625 5.45227 15.625 5.625V16.25H14.1919L13.8194 15.8775ZM16.25 16.25V5.9375H18.75V6.875H18.125V7.5H18.75V8.4375H18.125V9.0625H18.75V10H18.125V10.625H18.75V11.5625H18.125V12.1875H18.75V13.125H18.125V13.75H18.75V14.6875H18.125V15.3125H18.75V16.25H16.25Z"/>
</mask>
<path d="M17.0959 0.716553C17.0374 0.657959 16.958 0.625 16.875 0.625H5.9375C5.76477 0.625 5.625 0.764772 5.625 0.9375V7.68311L1.15845 3.21655C1.06903 3.12714 0.934753 3.10028 0.817872 3.1488C0.700987 3.19702 0.625 3.31116 0.625 3.4375V19.0625C0.625 19.2352 0.764772 19.375 0.9375 19.375H16.5625C16.6888 19.375 16.803 19.299 16.8512 19.1821C16.8997 19.0652 16.8729 18.931 16.7834 18.8416L14.8169 16.875H15.9375H19.0625C19.2352 16.875 19.375 16.7352 19.375 16.5625V5.625V3.125C19.375 3.04199 19.342 2.96265 19.2834 2.90405L17.0959 0.716553ZM1.25 18.75V4.19189L2.68311 5.625L2.27905 6.02905L2.72095 6.47095L3.125 6.06689L3.62061 6.5625L3.21655 6.96655L3.65845 7.40845L4.0625 7.00439L4.55811 7.5L4.15405 7.90405L4.59595 8.34595L5 7.94189L5.49561 8.4375L5.09155 8.84155L5.53345 9.28345L5.9375 8.87939L6.43311 9.375L6.02905 9.77905L6.47095 10.2209L6.875 9.81689L7.37061 10.3125L6.96655 10.7166L7.40845 11.1584L7.8125 10.7544L8.30811 11.25L7.90405 11.6541L8.34595 12.0959L8.75 11.6919L9.24561 12.1875L8.84155 12.5916L9.28345 13.0334L9.6875 12.6294L10.1831 13.125L9.77905 13.5291L10.2209 13.9709L10.625 13.5669L11.1206 14.0625L10.7166 14.4666L11.1584 14.9084L11.5625 14.5044L12.0581 15L11.6541 15.4041L12.0959 15.8459L12.5 15.4419L12.9956 15.9375L12.5916 16.3416L13.0334 16.7834L13.4375 16.3794L13.9331 16.875L13.5291 17.2791L13.9709 17.7209L14.375 17.3169L15.8081 18.75H1.25ZM7.8125 4.6875H9.0625V11.1206L7.8125 9.87061V4.6875ZM8.00568 4.0625L8.4375 3.19885L8.86932 4.0625H8.00568ZM11.8802 10.3479L12.4127 8.75H13.2123L13.7448 10.3479L13.2484 15.3065L12.2781 14.3362L11.8802 10.3479ZM13.125 6.875V5.46465L14.0085 6.87836L13.2606 8.125H12.3644L11.6165 6.87836L12.5 5.46465V6.875H13.125ZM13.8194 15.8775L14.3735 10.3436C14.3777 10.2997 14.3729 10.2554 14.3588 10.2136L13.7793 8.47517L14.6429 7.03583C14.7034 6.93512 14.7021 6.80908 14.6399 6.70929L13.0774 4.20929C12.9633 4.02679 12.6617 4.02679 12.5476 4.20929L10.9851 6.70929C10.9228 6.80908 10.9216 6.93512 10.982 7.03583L11.8457 8.47517L11.2662 10.2136C11.2521 10.2554 11.2472 10.2997 11.2515 10.3436L11.5803 13.6384L9.6875 11.7456V4.375C9.6875 4.32648 9.67621 4.27857 9.65454 4.23523L8.71704 2.36023C8.61084 2.14844 8.26416 2.14844 8.15796 2.36023L7.22046 4.23523C7.19879 4.27857 7.1875 4.32648 7.1875 4.375V9.24561L6.25 8.30811V1.25H16.7456L18.3081 2.8125H17.1875V2.1875H16.5625V3.125C16.5625 3.29773 16.7023 3.4375 16.875 3.4375H18.75V5.3125H15.9375C15.7648 5.3125 15.625 5.45227 15.625 5.625V16.25H14.1919L13.8194 15.8775ZM16.25 16.25V5.9375H18.75V6.875H18.125V7.5H18.75V8.4375H18.125V9.0625H18.75V10H18.125V10.625H18.75V11.5625H18.125V12.1875H18.75V13.125H18.125V13.75H18.75V14.6875H18.125V15.3125H18.75V16.25H16.25Z" fill="#323133"/>
<path d="M17.0959 0.716553C17.0374 0.657959 16.958 0.625 16.875 0.625H5.9375C5.76477 0.625 5.625 0.764772 5.625 0.9375V7.68311L1.15845 3.21655C1.06903 3.12714 0.934753 3.10028 0.817872 3.1488C0.700987 3.19702 0.625 3.31116 0.625 3.4375V19.0625C0.625 19.2352 0.764772 19.375 0.9375 19.375H16.5625C16.6888 19.375 16.803 19.299 16.8512 19.1821C16.8997 19.0652 16.8729 18.931 16.7834 18.8416L14.8169 16.875H15.9375H19.0625C19.2352 16.875 19.375 16.7352 19.375 16.5625V5.625V3.125C19.375 3.04199 19.342 2.96265 19.2834 2.90405L17.0959 0.716553ZM1.25 18.75V4.19189L2.68311 5.625L2.27905 6.02905L2.72095 6.47095L3.125 6.06689L3.62061 6.5625L3.21655 6.96655L3.65845 7.40845L4.0625 7.00439L4.55811 7.5L4.15405 7.90405L4.59595 8.34595L5 7.94189L5.49561 8.4375L5.09155 8.84155L5.53345 9.28345L5.9375 8.87939L6.43311 9.375L6.02905 9.77905L6.47095 10.2209L6.875 9.81689L7.37061 10.3125L6.96655 10.7166L7.40845 11.1584L7.8125 10.7544L8.30811 11.25L7.90405 11.6541L8.34595 12.0959L8.75 11.6919L9.24561 12.1875L8.84155 12.5916L9.28345 13.0334L9.6875 12.6294L10.1831 13.125L9.77905 13.5291L10.2209 13.9709L10.625 13.5669L11.1206 14.0625L10.7166 14.4666L11.1584 14.9084L11.5625 14.5044L12.0581 15L11.6541 15.4041L12.0959 15.8459L12.5 15.4419L12.9956 15.9375L12.5916 16.3416L13.0334 16.7834L13.4375 16.3794L13.9331 16.875L13.5291 17.2791L13.9709 17.7209L14.375 17.3169L15.8081 18.75H1.25ZM7.8125 4.6875H9.0625V11.1206L7.8125 9.87061V4.6875ZM8.00568 4.0625L8.4375 3.19885L8.86932 4.0625H8.00568ZM11.8802 10.3479L12.4127 8.75H13.2123L13.7448 10.3479L13.2484 15.3065L12.2781 14.3362L11.8802 10.3479ZM13.125 6.875V5.46465L14.0085 6.87836L13.2606 8.125H12.3644L11.6165 6.87836L12.5 5.46465V6.875H13.125ZM13.8194 15.8775L14.3735 10.3436C14.3777 10.2997 14.3729 10.2554 14.3588 10.2136L13.7793 8.47517L14.6429 7.03583C14.7034 6.93512 14.7021 6.80908 14.6399 6.70929L13.0774 4.20929C12.9633 4.02679 12.6617 4.02679 12.5476 4.20929L10.9851 6.70929C10.9228 6.80908 10.9216 6.93512 10.982 7.03583L11.8457 8.47517L11.2662 10.2136C11.2521 10.2554 11.2472 10.2997 11.2515 10.3436L11.5803 13.6384L9.6875 11.7456V4.375C9.6875 4.32648 9.67621 4.27857 9.65454 4.23523L8.71704 2.36023C8.61084 2.14844 8.26416 2.14844 8.15796 2.36023L7.22046 4.23523C7.19879 4.27857 7.1875 4.32648 7.1875 4.375V9.24561L6.25 8.30811V1.25H16.7456L18.3081 2.8125H17.1875V2.1875H16.5625V3.125C16.5625 3.29773 16.7023 3.4375 16.875 3.4375H18.75V5.3125H15.9375C15.7648 5.3125 15.625 5.45227 15.625 5.625V16.25H14.1919L13.8194 15.8775ZM16.25 16.25V5.9375H18.75V6.875H18.125V7.5H18.75V8.4375H18.125V9.0625H18.75V10H18.125V10.625H18.75V11.5625H18.125V12.1875H18.75V13.125H18.125V13.75H18.75V14.6875H18.125V15.3125H18.75V16.25H16.25Z" stroke="#323133" stroke-width="0.2" mask="url(#path-2-outside-1)"/>
<path d="M1.875 17.5H2.5V18.125H1.875V17.5Z" fill="#323133"/>
<path d="M3.125 17.5H3.75V18.125H3.125V17.5Z" fill="#323133"/>
<path d="M4.375 17.5H5V18.125H4.375V17.5Z" fill="#323133"/>
</svg>
