<svg width="60" height="60" viewBox="0 0 60 60" fill="none" xmlns="http://www.w3.org/2000/svg">
<rect width="60" height="60" rx="30" fill="#EB1C24"/>
<path d="M46.4999 24.8167L44.1499 15H37.8999H34.5499H31.6666H28.3332H25.4666H22.0999H15.8499L13.4999 24.8167C13.0999 26.5167 13.4666 28.25 14.5332 29.6167C14.6666 29.8 14.8499 29.9333 14.9999 30.1V45H44.9999V30.1C45.1499 29.95 45.3332 29.8 45.4666 29.6333C46.5332 28.2667 46.9165 26.5167 46.4999 24.8167ZM21.6999 18.3333L20.7332 26.4333C20.5999 27.5167 19.7332 28.3333 18.7166 28.3333C17.8999 28.3333 17.3832 27.85 17.1666 27.55C16.7332 27 16.5832 26.2833 16.7499 25.6L18.4832 18.3333H21.6999ZM41.5166 18.3333L43.2666 25.6C43.4332 26.3 43.2832 27 42.8499 27.55C42.6166 27.85 42.1166 28.3333 41.2832 28.3333C40.2666 28.3333 39.3832 27.5167 39.2666 26.4333L38.2999 18.3333H41.5166ZM35.8499 25.8667C35.9332 26.5167 35.7332 27.1667 35.2999 27.65C34.9166 28.0833 34.3832 28.3333 33.6999 28.3333C32.5832 28.3333 31.6666 27.35 31.6666 26.15V18.3333H34.9332L35.8499 25.8667ZM28.3332 26.15C28.3332 27.35 27.4166 28.3333 26.1832 28.3333C25.6166 28.3333 25.0999 28.0833 24.6999 27.65C24.2832 27.1667 24.0832 26.5167 24.1499 25.8667L25.0666 18.3333H28.3332V26.15ZM18.3332 41.6667V31.6167C18.4666 31.6333 18.5832 31.6667 18.7166 31.6667C20.1666 31.6667 21.4832 31.0667 22.4499 30.0833C23.4499 31.0833 24.7832 31.6667 26.2999 31.6667C27.7499 31.6667 29.0499 31.0667 30.0166 30.1167C30.9999 31.0667 32.3332 31.6667 33.8332 31.6667C35.2332 31.6667 36.5666 31.0833 37.5666 30.0833C38.5332 31.0667 39.8499 31.6667 41.2999 31.6667C41.4332 31.6667 41.5499 31.6333 41.6832 31.6167V41.6667H18.3332Z" fill="white"/>
</svg>
