<svg width="24" height="24" viewBox="0 0 24 24" fill="none" xmlns="http://www.w3.org/2000/svg">
<path fill-rule="evenodd" clip-rule="evenodd" d="M12 24C18.627 24 24 18.627 24 12C24 5.373 18.627 0 12 0C5.373 0 0 5.373 0 12C0 18.627 5.373 24 12 24Z" fill="#00ACED"/>
<path fill-rule="evenodd" clip-rule="evenodd" d="M18.366 8.39797C18.0838 8.52321 17.7905 8.62197 17.49 8.69297C17.8233 8.37645 18.0713 7.98089 18.211 7.54297C18.252 7.41797 18.115 7.31097 18.002 7.37597C17.5845 7.62452 17.1332 7.81114 16.662 7.92997C16.6067 7.94349 16.549 7.94336 16.4938 7.9296C16.4386 7.91584 16.3875 7.88885 16.345 7.85097C15.8439 7.41036 15.1993 7.16753 14.532 7.16797C14.2377 7.16845 13.945 7.21328 13.664 7.30097C13.2261 7.43776 12.8311 7.68585 12.5177 8.02098C12.2043 8.35611 11.9832 8.76682 11.876 9.21297C11.7956 9.54326 11.7733 9.88502 11.81 10.223C11.8115 10.2365 11.8101 10.2501 11.806 10.263C11.8018 10.2759 11.7951 10.2878 11.786 10.298C11.7767 10.3091 11.7651 10.3181 11.752 10.3243C11.7389 10.3306 11.7246 10.3338 11.71 10.334H11.7C10.7425 10.2468 9.8122 9.96841 8.96419 9.51529C8.11618 9.06217 7.36769 8.44352 6.76303 7.69597C6.74858 7.67791 6.72993 7.66365 6.70871 7.65444C6.68749 7.64523 6.66434 7.64134 6.64127 7.64311C6.61821 7.64489 6.59592 7.65227 6.57636 7.66462C6.5568 7.67697 6.54055 7.69391 6.52903 7.71397C6.22254 8.23954 6.09991 8.85224 6.18049 9.45528C6.26108 10.0583 6.5403 10.6173 6.97403 11.044C6.75561 10.9923 6.54532 10.9108 6.34903 10.802C6.32742 10.7901 6.3031 10.7839 6.27843 10.7842C6.25377 10.7845 6.22959 10.7911 6.20825 10.8035C6.18691 10.8159 6.16914 10.8336 6.15666 10.8549C6.14418 10.8762 6.13742 10.9003 6.13703 10.925C6.13082 11.4558 6.27866 11.977 6.56263 12.4255C6.84661 12.874 7.25455 13.2306 7.73703 13.452H7.67803C7.52503 13.452 7.37003 13.438 7.21803 13.409C7.1937 13.4043 7.16857 13.406 7.14508 13.4139C7.1216 13.4218 7.10054 13.4356 7.08395 13.454C7.06736 13.4724 7.0558 13.4947 7.05038 13.5189C7.04496 13.5431 7.04588 13.5682 7.05303 13.592C7.20807 14.0726 7.49266 14.5012 7.8755 14.8306C8.25835 15.16 8.72462 15.3774 9.22303 15.459C8.38632 16.0226 7.39987 16.3225 6.39103 16.32H6.07403C6.02725 16.3196 5.98169 16.3348 5.94455 16.3632C5.90741 16.3917 5.88083 16.4317 5.86903 16.477C5.8579 16.5228 5.86204 16.5711 5.88081 16.6144C5.89957 16.6577 5.93195 16.6937 5.97303 16.717C7.12037 17.3842 8.42378 17.7361 9.75103 17.737C10.912 17.737 11.999 17.506 12.979 17.052C13.8816 16.6333 14.6865 16.0304 15.342 15.282C15.9683 14.5693 16.4584 13.7476 16.788 12.858C17.1079 12.0108 17.2745 11.1135 17.28 10.208V10.166C17.2802 10.0962 17.2959 10.0273 17.326 9.96435C17.3561 9.90139 17.3998 9.84592 17.454 9.80197C17.8749 9.46055 18.2423 9.05809 18.544 8.60797C18.624 8.48797 18.498 8.33797 18.366 8.39797Z" fill="white"/>
</svg>
