<svg width="24" height="24" viewBox="0 0 24 24" fill="none" xmlns="http://www.w3.org/2000/svg">
<path d="M11.1 12.2504C11.1 12.1004 11.1 11.7502 10.8503 11.5499C10.5998 11.3002 10.35 11.2004 9.95026 11.2004H8.94976C8.64976 11.2004 8.49976 11.3504 8.49976 11.6002V13.9499C8.49976 14.2004 8.70001 14.3504 8.90026 14.3504C8.95301 14.3511 9.00537 14.3413 9.05424 14.3214C9.10311 14.3015 9.14749 14.272 9.18477 14.2347C9.22204 14.1973 9.25144 14.1529 9.27124 14.104C9.29103 14.0551 9.30081 14.0027 9.30001 13.9499V13.3499H9.69976L10.2503 14.1502C10.35 14.2499 10.5 14.3504 10.5998 14.3504C10.8 14.3504 11.0003 14.1502 11.0003 13.9499C11.0003 13.7999 10.95 13.7504 10.8998 13.7002L10.5503 13.2502C10.8998 12.9502 11.1 12.7004 11.1 12.2504ZM10.35 12.2504C10.35 12.5002 10.2 12.5999 9.95026 12.5999H9.30001V11.9002H9.95026C10.2503 11.9002 10.35 11.9999 10.35 12.2504ZM12.9 11.8499C12.6 11.8499 12.3998 11.9999 12.2498 12.1499C12.224 12.0776 12.1767 12.0148 12.1142 11.9702C12.0517 11.9255 11.9771 11.9011 11.9003 11.9002C11.8474 11.8994 11.795 11.9092 11.746 11.929C11.6971 11.9489 11.6526 11.9783 11.6153 12.0157C11.5779 12.053 11.5484 12.0975 11.5286 12.1465C11.5088 12.1954 11.4989 12.2479 11.4998 12.3007V14.5004C11.4998 14.7502 11.7 14.9002 11.9003 14.9002C11.9529 14.9009 12.0052 14.891 12.0541 14.8712C12.1029 14.8514 12.1472 14.8219 12.1845 14.7847C12.2218 14.7474 12.2512 14.7031 12.271 14.6542C12.2909 14.6054 12.3007 14.5531 12.3 14.5004V14.0002C12.45 14.1502 12.6 14.2507 12.9 14.2507C13.4003 14.2507 14.0003 13.8502 14.0003 13.0507C14.0003 12.2504 13.4498 11.8507 12.9 11.8507V11.8499ZM12.75 12.5999C13.05 12.5999 13.2 12.8002 13.2 13.1002C13.2 13.4002 13.05 13.6004 12.75 13.6004C12.45 13.6004 12.3 13.4002 12.3 13.1002C12.3 12.7507 12.45 12.6007 12.75 12.6007V12.5999Z" fill="#EB1C24"/>
<path d="M2.00024 8.49975V11.4998C3.01933 11.3793 3.96816 10.9192 4.69378 10.1935C5.4194 9.46792 5.87953 8.51909 5.99999 7.5H2.99999C2.45024 7.5 2.00024 7.95 2.00024 8.49975ZM2.00024 17.1V14.5005C2.89592 14.5957 3.73189 14.9951 4.36873 15.632C5.00556 16.269 5.40476 17.1051 5.49974 18.0007H2.90024C2.39999 18.0007 2.00024 17.6003 2.00024 17.1007V17.1ZM19.5 9.9V12.5002C18.6042 12.4052 17.768 12.0059 17.1311 11.3689C16.4941 10.732 16.0948 9.89581 15.9997 9H18.6C19.1002 9 19.5 9.39975 19.5 9.9ZM19.5 18.6V16.0005C18.6042 16.0955 17.768 16.4948 17.1311 17.1318C16.4941 17.7688 16.0948 18.6049 15.9997 19.5007H18.6C19.1002 19.5007 19.5 19.1003 19.5 18.6007V18.6Z" fill="#F37C80"/>
<path d="M20.85 5.09999C17.7 5.00024 15.8498 4.45049 14.25 4.00049C12.9 3.60074 11.7 3.25049 10.05 3.25049C7.85026 3.25049 6.15001 3.60074 5.15026 3.85049C4.20001 4.10024 3.50026 5.00024 3.50026 6.05024V6.70049C3.20026 6.75074 2.90026 6.85049 2.64976 6.90074C1.70026 7.10024 0.999756 8.00024 0.999756 9.05024V16.8502C0.999756 17.5507 1.29976 18.1507 1.85026 18.6007C2.40001 19.0507 3.09976 19.2007 3.75001 19.0507C4.95001 18.8002 6.24976 18.6502 7.59976 18.6502C9.00001 18.6502 10.05 18.9502 11.3498 19.3507C12.9503 19.8007 14.9003 20.4007 18.15 20.5507H18.2498C18.8498 20.5507 19.4003 20.3505 19.8 19.9005C20.25 19.4505 20.4998 18.9007 20.4998 18.3007V17.5005H20.7503C21.3503 17.5005 21.9 17.3002 22.2998 16.8502C22.7498 16.4002 23.0003 15.8505 23.0003 15.2505V7.35074C23.0003 6.15074 22.05 5.15024 20.85 5.10074V5.09999ZM18.9998 18.2505C18.9998 18.4507 18.9 18.6502 18.75 18.8002C18.6 18.9502 18.3998 19.0005 18.2003 19.0005C15.15 18.8505 13.35 18.3502 11.7503 17.9002C10.4003 17.5005 9.20026 17.1502 7.55026 17.1502C6.09976 17.1502 4.70026 17.3002 3.39976 17.6002C3.15001 17.6505 2.94976 17.6002 2.75026 17.4502C2.67083 17.3718 2.60778 17.2784 2.56477 17.1754C2.52177 17.0724 2.49967 16.9619 2.49976 16.8502V9.05024C2.49976 8.70074 2.75026 8.40074 3.05026 8.35049C3.99976 8.10074 5.55001 7.80074 7.59976 7.80074C9.00001 7.80074 10.05 8.10074 11.3498 8.50049C12.9503 8.95049 14.9498 9.55049 18.3 9.70049C18.6998 9.70049 18.9998 10.0507 18.9998 10.4505V18.2505ZM21.5003 15.2505C21.5003 15.4507 21.3998 15.6502 21.2498 15.8002C21.0998 15.9502 20.9003 16.0005 20.7 16.0005H20.4998V10.3507C20.4998 9.15074 19.5503 8.15024 18.3503 8.10074C15.2003 8.00024 13.4003 7.45049 11.7503 7.00049C10.4003 6.60074 9.20026 6.25049 7.55026 6.25049C6.60001 6.25049 5.75026 6.30074 4.95001 6.40049V6.00074C4.95001 5.65049 5.19976 5.35049 5.49976 5.30024C6.45001 5.05049 8.00026 4.75049 10.05 4.75049C11.4503 4.75049 12.5003 5.05049 13.8 5.45024C15.3998 5.90024 17.4 6.50024 20.7503 6.65024C21.15 6.65024 21.45 7.00049 21.45 7.40024V15.2505H21.5003Z" fill="#EB1C24"/>
</svg>
