<svg width="30" height="30" viewBox="0 0 30 30" fill="none" xmlns="http://www.w3.org/2000/svg">
<rect width="30" height="30" rx="15" fill="#323133"/>
<path d="M23.25 12.4083L22.075 7.5H18.95H17.275H15.8333H14.1667H12.7333H11.05H7.92501L6.75001 12.4083C6.55001 13.2583 6.73334 14.125 7.26667 14.8083C7.33334 14.9 7.42501 14.9667 7.50001 15.05V22.5H22.5V15.05C22.575 14.975 22.6667 14.9 22.7333 14.8167C23.2667 14.1333 23.4583 13.2583 23.25 12.4083ZM10.85 9.16667L10.3667 13.2167C10.3 13.7583 9.86667 14.1667 9.35834 14.1667C8.95001 14.1667 8.69167 13.925 8.58334 13.775C8.36667 13.5 8.29167 13.1417 8.37501 12.8L9.24167 9.16667H10.85ZM20.7583 9.16667L21.6333 12.8C21.7167 13.15 21.6417 13.5 21.425 13.775C21.3083 13.925 21.0583 14.1667 20.6417 14.1667C20.1333 14.1667 19.6917 13.7583 19.6333 13.2167L19.15 9.16667H20.7583ZM17.925 12.9333C17.9667 13.2583 17.8667 13.5833 17.65 13.825C17.4583 14.0417 17.1917 14.1667 16.85 14.1667C16.2917 14.1667 15.8333 13.675 15.8333 13.075V9.16667H17.4667L17.925 12.9333ZM14.1667 13.075C14.1667 13.675 13.7083 14.1667 13.0917 14.1667C12.8083 14.1667 12.55 14.0417 12.35 13.825C12.1417 13.5833 12.0417 13.2583 12.075 12.9333L12.5333 9.16667H14.1667V13.075ZM9.16667 20.8333V15.8083C9.23334 15.8167 9.29167 15.8333 9.35834 15.8333C10.0833 15.8333 10.7417 15.5333 11.225 15.0417C11.725 15.5417 12.3917 15.8333 13.15 15.8333C13.875 15.8333 14.525 15.5333 15.0083 15.0583C15.5 15.5333 16.1667 15.8333 16.9167 15.8333C17.6167 15.8333 18.2833 15.5417 18.7833 15.0417C19.2667 15.5333 19.925 15.8333 20.65 15.8333C20.7167 15.8333 20.775 15.8167 20.8417 15.8083V20.8333H9.16667Z" fill="white"/>
</svg>
